<mxfile host="www.draw.io" modified="2020-03-05T05:55:18.195Z" agent="Mozilla/5.0 (Windows NT 10.0; WOW64) AppleWebKit/537.36 (KHTML, like Gecko) Chrome/63.0.3239.132 Safari/537.36" etag="pi8keDDRNCFmdaaJRMGO" version="12.7.9" type="github">
  <diagram name="Page-1" id="e3a06f82-3646-2815-327d-82caf3d4e204">
    <mxGraphModel dx="1408" dy="733" grid="1" gridSize="10" guides="1" tooltips="1" connect="1" arrows="1" fold="1" page="1" pageScale="1.5" pageWidth="1169" pageHeight="826" background="none" math="0" shadow="0">
      <root>
        <mxCell id="0" style=";html=1;" />
        <mxCell id="1" style=";html=1;" parent="0" />
        <mxCell id="79VAhiX_9WCYXZZRJCCj-22" value="" style="whiteSpace=wrap;html=1;fontSize=14;verticalAlign=top;fillColor=#d5e8d4;strokeColor=#82b366;" parent="1" vertex="1">
          <mxGeometry x="1062.5" y="80" width="457.5" height="480" as="geometry" />
        </mxCell>
        <mxCell id="6a7d8f32e03d9370-58" value="" style="whiteSpace=wrap;html=1;fillColor=#dae8fc;fontSize=14;strokeColor=none;verticalAlign=top;" parent="1" vertex="1">
          <mxGeometry x="180" y="100" width="297" height="471" as="geometry" />
        </mxCell>
        <mxCell id="6a7d8f32e03d9370-36" style="edgeStyle=none;rounded=0;html=1;startSize=10;endSize=10;jettySize=auto;orthogonalLoop=1;fontSize=14;endArrow=none;endFill=0;strokeWidth=2;" parent="1" source="6a7d8f32e03d9370-1" target="79VAhiX_9WCYXZZRJCCj-6" edge="1">
          <mxGeometry relative="1" as="geometry">
            <mxPoint x="627" y="404.27792915531336" as="targetPoint" />
          </mxGeometry>
        </mxCell>
        <mxCell id="6a7d8f32e03d9370-1" value="Client" style="verticalLabelPosition=bottom;aspect=fixed;html=1;verticalAlign=top;strokeColor=none;shape=mxgraph.citrix.laptop_2;fillColor=#66B2FF;gradientColor=#0066CC;fontSize=14;" parent="1" vertex="1">
          <mxGeometry x="239.9999999999999" y="298.5" width="116" height="86.5" as="geometry" />
        </mxCell>
        <mxCell id="6a7d8f32e03d9370-37" style="edgeStyle=none;rounded=0;html=1;startSize=10;endSize=10;jettySize=auto;orthogonalLoop=1;fontSize=14;endArrow=none;endFill=0;strokeWidth=2;" parent="1" source="6a7d8f32e03d9370-6" target="79VAhiX_9WCYXZZRJCCj-6" edge="1">
          <mxGeometry relative="1" as="geometry">
            <mxPoint x="627" y="419.5228245363767" as="targetPoint" />
          </mxGeometry>
        </mxCell>
        <mxCell id="6a7d8f32e03d9370-6" value="Client" style="verticalLabelPosition=bottom;aspect=fixed;html=1;verticalAlign=top;strokeColor=none;shape=mxgraph.citrix.pda;fillColor=#66B2FF;gradientColor=#0066CC;fontSize=14;" parent="1" vertex="1">
          <mxGeometry x="299.50000000000006" y="455" width="30" height="61" as="geometry" />
        </mxCell>
        <mxCell id="6a7d8f32e03d9370-21" value="" style="verticalLabelPosition=bottom;aspect=fixed;html=1;verticalAlign=top;strokeColor=none;shape=mxgraph.citrix.firewall;fillColor=#66B2FF;gradientColor=#0066CC;fontSize=14;rotation=0;" parent="1" vertex="1">
          <mxGeometry x="670" y="80" width="312.26" height="387.2" as="geometry" />
        </mxCell>
        <mxCell id="79VAhiX_9WCYXZZRJCCj-2" value="client" style="verticalLabelPosition=bottom;aspect=fixed;html=1;verticalAlign=top;strokeColor=none;shape=mxgraph.citrix.desktop;fillColor=#66B2FF;gradientColor=#0066CC;fontSize=14;" parent="1" vertex="1">
          <mxGeometry x="269.99999999999994" y="132" width="89" height="98" as="geometry" />
        </mxCell>
        <mxCell id="79VAhiX_9WCYXZZRJCCj-5" value="" style="verticalLabelPosition=bottom;aspect=fixed;html=1;verticalAlign=top;strokeColor=none;align=center;outlineConnect=0;shape=mxgraph.citrix.globe;" parent="1" vertex="1">
          <mxGeometry x="1222.97" y="194.5" width="197.03" height="188.25" as="geometry" />
        </mxCell>
        <mxCell id="79VAhiX_9WCYXZZRJCCj-6" value="" style="verticalLabelPosition=bottom;aspect=fixed;html=1;verticalAlign=top;strokeColor=none;align=center;outlineConnect=0;shape=mxgraph.citrix.browser;" parent="1" vertex="1">
          <mxGeometry x="570" y="260" width="47.5" height="72.5" as="geometry" />
        </mxCell>
        <mxCell id="79VAhiX_9WCYXZZRJCCj-7" style="edgeStyle=none;rounded=0;html=1;startSize=10;endSize=10;jettySize=auto;orthogonalLoop=1;fontSize=14;endArrow=none;endFill=0;strokeWidth=2;exitX=1;exitY=0.724;exitDx=0;exitDy=0;exitPerimeter=0;" parent="1" source="79VAhiX_9WCYXZZRJCCj-2" target="79VAhiX_9WCYXZZRJCCj-6" edge="1">
          <mxGeometry relative="1" as="geometry">
            <mxPoint x="366" y="342.8269230769231" as="sourcePoint" />
            <mxPoint x="560" y="300" as="targetPoint" />
          </mxGeometry>
        </mxCell>
        <mxCell id="79VAhiX_9WCYXZZRJCCj-9" value="Proxy Server" style="verticalLabelPosition=bottom;aspect=fixed;html=1;verticalAlign=top;strokeColor=none;align=center;outlineConnect=0;shape=mxgraph.citrix.proxy_server;fontStyle=1;fontSize=18;" parent="1" vertex="1">
          <mxGeometry x="740" y="490" width="140.5" height="165.29" as="geometry" />
        </mxCell>
        <mxCell id="79VAhiX_9WCYXZZRJCCj-10" value="Google" style="verticalLabelPosition=bottom;aspect=fixed;html=1;verticalAlign=top;strokeColor=none;align=center;outlineConnect=0;shape=mxgraph.citrix.cloud;fontStyle=1;fontSize=18;" parent="1" vertex="1">
          <mxGeometry x="1202.97" y="147.75" width="95" height="62" as="geometry" />
        </mxCell>
        <mxCell id="79VAhiX_9WCYXZZRJCCj-11" value="Facebook" style="verticalLabelPosition=bottom;aspect=fixed;html=1;verticalAlign=top;strokeColor=none;align=center;outlineConnect=0;shape=mxgraph.citrix.cloud;fontStyle=1;fontSize=18;" parent="1" vertex="1">
          <mxGeometry x="1158.97" y="302.25" width="95" height="62" as="geometry" />
        </mxCell>
        <mxCell id="79VAhiX_9WCYXZZRJCCj-12" value="Twitter&lt;br style=&quot;font-size: 18px;&quot;&gt;" style="verticalLabelPosition=bottom;aspect=fixed;html=1;verticalAlign=top;strokeColor=none;align=center;outlineConnect=0;shape=mxgraph.citrix.cloud;fontStyle=1;fontSize=18;" parent="1" vertex="1">
          <mxGeometry x="1282.97" y="382.75" width="95" height="62" as="geometry" />
        </mxCell>
        <mxCell id="79VAhiX_9WCYXZZRJCCj-15" value="" style="endArrow=none;dashed=1;html=1;" parent="1" source="79VAhiX_9WCYXZZRJCCj-6" edge="1">
          <mxGeometry width="50" height="50" relative="1" as="geometry">
            <mxPoint x="730" y="340" as="sourcePoint" />
            <mxPoint x="710" y="340" as="targetPoint" />
            <Array as="points">
              <mxPoint x="710" y="260" />
              <mxPoint x="750" y="320" />
            </Array>
          </mxGeometry>
        </mxCell>
        <mxCell id="79VAhiX_9WCYXZZRJCCj-16" value="" style="endArrow=none;dashed=1;html=1;" parent="1" edge="1">
          <mxGeometry width="50" height="50" relative="1" as="geometry">
            <mxPoint x="619" y="310" as="sourcePoint" />
            <mxPoint x="711" y="350" as="targetPoint" />
            <Array as="points">
              <mxPoint x="700" y="280" />
              <mxPoint x="751" y="330" />
            </Array>
          </mxGeometry>
        </mxCell>
        <mxCell id="79VAhiX_9WCYXZZRJCCj-17" value="" style="endArrow=none;dashed=1;html=1;" parent="1" target="6a7d8f32e03d9370-21" edge="1">
          <mxGeometry width="50" height="50" relative="1" as="geometry">
            <mxPoint x="617" y="292.5" as="sourcePoint" />
            <mxPoint x="709" y="332.5" as="targetPoint" />
            <Array as="points">
              <mxPoint x="710" y="230" />
              <mxPoint x="749" y="312.5" />
            </Array>
          </mxGeometry>
        </mxCell>
        <mxCell id="79VAhiX_9WCYXZZRJCCj-18" value="" style="endArrow=classic;html=1;" parent="1" source="79VAhiX_9WCYXZZRJCCj-6" target="79VAhiX_9WCYXZZRJCCj-9" edge="1">
          <mxGeometry width="50" height="50" relative="1" as="geometry">
            <mxPoint x="730" y="440" as="sourcePoint" />
            <mxPoint x="760" y="550" as="targetPoint" />
          </mxGeometry>
        </mxCell>
        <mxCell id="79VAhiX_9WCYXZZRJCCj-19" value="" style="endArrow=classic;html=1;exitX=0.869;exitY=0.577;exitDx=0;exitDy=0;exitPerimeter=0;" parent="1" source="79VAhiX_9WCYXZZRJCCj-9" target="79VAhiX_9WCYXZZRJCCj-10" edge="1">
          <mxGeometry width="50" height="50" relative="1" as="geometry">
            <mxPoint x="627.5" y="332.795626349892" as="sourcePoint" />
            <mxPoint x="780" y="503.2464902807776" as="targetPoint" />
            <Array as="points">
              <mxPoint x="880" y="565" />
            </Array>
          </mxGeometry>
        </mxCell>
        <mxCell id="79VAhiX_9WCYXZZRJCCj-20" value="" style="endArrow=classic;html=1;exitX=0.869;exitY=0.577;exitDx=0;exitDy=0;exitPerimeter=0;" parent="1" target="79VAhiX_9WCYXZZRJCCj-11" edge="1">
          <mxGeometry width="50" height="50" relative="1" as="geometry">
            <mxPoint x="876.0245" y="575.01" as="sourcePoint" />
            <mxPoint x="1293" y="440" as="targetPoint" />
            <Array as="points">
              <mxPoint x="890" y="575" />
            </Array>
          </mxGeometry>
        </mxCell>
        <mxCell id="79VAhiX_9WCYXZZRJCCj-21" value="" style="endArrow=classic;html=1;exitX=0.869;exitY=0.577;exitDx=0;exitDy=0;exitPerimeter=0;" parent="1" target="79VAhiX_9WCYXZZRJCCj-12" edge="1">
          <mxGeometry width="50" height="50" relative="1" as="geometry">
            <mxPoint x="886.0245" y="585.01" as="sourcePoint" />
            <mxPoint x="1302.9700000000003" y="449.6986203298777" as="targetPoint" />
            <Array as="points">
              <mxPoint x="900" y="585" />
            </Array>
          </mxGeometry>
        </mxCell>
      </root>
    </mxGraphModel>
  </diagram>
</mxfile>
